<?xml version="1.0" encoding="utf-8"?>
<!-- Generator: Adobe Illustrator 14.0.0, SVG Export Plug-In . SVG Version: 6.00 Build 43363)  -->
<!DOCTYPE svg PUBLIC "-//W3C//DTD SVG 1.1//EN" "http://www.w3.org/Graphics/SVG/1.1/DTD/svg11.dtd">
<svg version="1.1" id="Layer_1" xmlns="http://www.w3.org/2000/svg" xmlns:xlink="http://www.w3.org/1999/xlink" x="0px" y="0px"
	 width="96px" height="96px" viewBox="0 0 96 96" enable-background="new 0 0 96 96" xml:space="preserve">
<g>
	<polygon fill="#398CA1" points="24.168,89.36 0.289,48.002 24.168,6.64 71.927,6.64 95.809,48.002 71.927,89.36 	"/>
	<path fill="#FFFFFF" d="M73.537,63.64c-2.596,3.84-5.897,6.828-9.901,8.967c-4.008,2.146-8.295,3.22-12.861,3.22
		c-3.78,0-7.333-0.723-10.662-2.159c-3.33-1.438-6.239-3.396-8.734-5.88c-2.491-2.485-4.452-5.389-5.88-8.715
		c-1.428-3.331-2.141-6.884-2.141-10.66c0-3.784,0.712-7.338,2.141-10.665s3.389-6.23,5.88-8.715
		c2.495-2.48,5.404-4.456,8.734-5.927c3.329-1.462,6.882-2.197,10.662-2.197c4.566,0,8.854,1.073,12.861,3.215
		c4.004,2.147,7.306,5.106,9.901,8.886l-9.646,4.823c-3.386-4.233-7.755-6.346-13.116-6.346c-2.315,0-4.5,0.449-6.559,1.352
		c-2.059,0.902-3.849,2.129-5.373,3.682c-1.522,1.552-2.722,3.361-3.594,5.414c-0.875,2.065-1.311,4.22-1.311,6.478
		c0,2.253,0.448,4.396,1.353,6.427c0.9,2.032,2.112,3.822,3.634,5.371c1.527,1.557,3.304,2.784,5.333,3.687
		c2.033,0.901,4.202,1.351,6.517,1.351c5.361,0,9.73-2.113,13.116-6.347L73.537,63.64z"/>
</g>
</svg>
