<?xml version="1.0" encoding="utf-8"?>
<!-- Generator: Adobe Illustrator 14.0.0, SVG Export Plug-In . SVG Version: 6.00 Build 43363)  -->
<!DOCTYPE svg PUBLIC "-//W3C//DTD SVG 1.1//EN" "http://www.w3.org/Graphics/SVG/1.1/DTD/svg11.dtd">
<svg version="1.1" id="Layer_1" xmlns="http://www.w3.org/2000/svg" xmlns:xlink="http://www.w3.org/1999/xlink" x="0px" y="0px"
	 width="200px" height="80px" viewBox="0 0 200 80" enable-background="new 0 0 200 80" xml:space="preserve">
<polygon fill="#9B9DA1" points="53.783,18.134 40.872,18.134 34.415,29.315 40.872,40.497 53.783,40.497 60.238,29.315 "/>
<polygon fill="#797A7D" points="75.257,30.362 62.347,30.362 55.892,41.543 62.347,52.724 75.257,52.724 81.713,41.543 "/>
<polygon fill="#B9BABD" points="53.866,42.935 40.954,42.935 34.499,54.115 40.954,65.299 53.866,65.299 60.321,54.115 "/>
<polygon fill="#9B9DA1" points="70.267,55.165 62.468,55.165 58.569,61.918 62.468,68.672 70.267,68.672 74.166,61.918 "/>
<polygon fill="#9B9DA1" points="83.809,63.157 76.011,63.157 72.111,69.91 76.011,76.664 83.809,76.664 87.708,69.91 "/>
<polygon fill="#797A7D" points="32.41,30.644 19.498,30.644 13.043,41.825 19.498,53.006 32.41,53.006 38.866,41.825 "/>
<polygon fill="#398CA1" points="96.444,17.862 83.534,17.862 77.078,29.042 83.534,40.224 96.444,40.224 102.9,29.042 "/>
<polygon fill="#4E4D50" points="32.191,14.825 24.393,14.825 20.494,21.578 24.393,28.332 32.191,28.332 36.09,21.578 "/>
<polygon fill="#211F1F" points="12.348,45.261 4.55,45.261 0.65,52.015 4.55,58.766 12.348,58.766 16.247,52.015 "/>
<polygon fill="#4E4D50" points="93.547,1.921 85.749,1.921 81.85,8.674 85.749,15.428 93.547,15.428 97.448,8.674 "/>
<polygon fill="#4E4D50" points="39.802,67.904 34.324,67.904 31.584,72.649 34.324,77.393 39.802,77.393 42.542,72.649 "/>
<path fill="#FFFFFF" d="M97.228,33.484c-0.737,1.089-1.675,1.938-2.812,2.546c-1.138,0.61-2.354,0.915-3.651,0.915
	c-1.074,0-2.083-0.206-3.028-0.613c-0.945-0.409-1.772-0.965-2.479-1.669c-0.708-0.706-1.264-1.53-1.67-2.476
	c-0.405-0.945-0.608-1.954-0.608-3.027c0-1.074,0.203-2.083,0.608-3.027c0.406-0.945,0.962-1.771,1.67-2.475
	c0.708-0.706,1.535-1.267,2.479-1.683c0.946-0.417,1.955-0.624,3.028-0.624c1.296,0,2.513,0.305,3.651,0.912
	c1.138,0.609,2.075,1.451,2.812,2.523l-2.739,1.37c-0.962-1.201-2.203-1.802-3.724-1.802c-0.658,0-1.279,0.128-1.863,0.385
	c-0.585,0.256-1.093,0.605-1.526,1.044c-0.432,0.442-0.772,0.954-1.02,1.539c-0.249,0.585-0.373,1.197-0.373,1.838
	c0,0.641,0.127,1.249,0.385,1.826c0.255,0.577,0.6,1.084,1.032,1.525c0.434,0.442,0.938,0.789,1.514,1.045
	c0.577,0.257,1.192,0.385,1.851,0.385c1.521,0,2.762-0.601,3.724-1.802L97.228,33.484z"/>
<path fill="#398CA1" d="M121.036,29.779c0,0.965-0.189,1.878-0.569,2.742c-0.38,0.862-0.891,1.619-1.532,2.27
	c-0.643,0.651-1.394,1.162-2.256,1.535c-0.861,0.373-1.774,0.56-2.737,0.56c-0.978,0-1.897-0.187-2.759-0.56
	c-0.862-0.373-1.617-0.88-2.267-1.524s-1.161-1.396-1.532-2.259c-0.373-0.863-0.559-1.784-0.559-2.764s0.186-1.9,0.559-2.764
	c0.371-0.862,0.883-1.615,1.532-2.258s1.404-1.155,2.267-1.536c0.861-0.379,1.781-0.569,2.759-0.569c0.963,0,1.876,0.19,2.737,0.569
	c0.862,0.381,1.613,0.893,2.256,1.536c0.642,0.644,1.152,1.4,1.532,2.27C120.847,27.897,121.036,28.814,121.036,29.779z
	 M118.295,29.779c0-0.585-0.113-1.144-0.34-1.678c-0.227-0.533-0.537-1.001-0.932-1.404c-0.395-0.402-0.856-0.72-1.382-0.953
	c-0.527-0.234-1.089-0.351-1.689-0.351c-0.6,0-1.165,0.117-1.699,0.351c-0.533,0.233-0.997,0.547-1.394,0.942
	c-0.395,0.395-0.709,0.86-0.941,1.393c-0.234,0.534-0.352,1.1-0.352,1.7c0,0.6,0.117,1.162,0.352,1.689
	c0.232,0.526,0.547,0.986,0.941,1.381c0.396,0.396,0.86,0.71,1.394,0.943c0.534,0.234,1.1,0.351,1.699,0.351
	c0.586,0,1.141-0.117,1.668-0.351c0.525-0.233,0.986-0.551,1.382-0.955c0.395-0.402,0.709-0.866,0.941-1.391
	C118.178,30.919,118.295,30.365,118.295,29.779z"/>
<path fill="#398CA1" d="M154.785,36.644h-2.764c-0.395,0-0.76-0.069-1.097-0.208c-0.336-0.14-0.625-0.329-0.865-0.571
	c-0.242-0.242-0.433-0.529-0.571-0.866c-0.138-0.336-0.207-0.702-0.207-1.098V18.968h2.74v3.904h2.764v2.544h-2.764v8.486h2.764
	V36.644z"/>
<path fill="#398CA1" d="M178.463,29.779c0,0.482-0.051,0.937-0.152,1.36h-11.119c0.146,0.438,0.356,0.844,0.635,1.217
	c0.278,0.373,0.597,0.691,0.954,0.955c0.358,0.263,0.757,0.467,1.195,0.614c0.439,0.146,0.893,0.219,1.36,0.219
	c1.389,0,2.521-0.541,3.399-1.623l2.071,1.788c0,0-0.956,0.99-1.534,1.37c-0.578,0.381-1.199,0.678-1.864,0.889
	c-0.665,0.211-1.356,0.318-2.072,0.318c-0.966,0-1.883-0.187-2.753-0.56c-0.869-0.373-1.626-0.88-2.27-1.524
	s-1.155-1.396-1.535-2.259c-0.381-0.863-0.57-1.784-0.57-2.764s0.189-1.9,0.57-2.764c0.38-0.862,0.892-1.615,1.535-2.258
	s1.4-1.155,2.27-1.536c0.87-0.379,1.787-0.569,2.753-0.569c0.979,0,1.899,0.19,2.764,0.569c0.861,0.381,1.614,0.893,2.258,1.536
	s1.155,1.396,1.536,2.258C178.272,27.879,178.463,28.799,178.463,29.779z M175.481,28.397c-0.147-0.438-0.358-0.84-0.637-1.206
	c-0.278-0.366-0.6-0.684-0.966-0.955c-0.365-0.271-0.767-0.478-1.205-0.625c-0.438-0.146-0.886-0.219-1.338-0.219
	c-0.468,0-0.921,0.073-1.36,0.219c-0.438,0.147-0.837,0.351-1.195,0.614c-0.357,0.264-0.676,0.582-0.954,0.955
	c-0.278,0.373-0.489,0.778-0.635,1.216H175.481z"/>
<path fill="#398CA1" d="M140.33,25.265h-6.218v11.184h-2.87v-6.935v-4.292c0-0.82,0.253-1.484,0.757-1.996
	c0.505-0.511,1.165-0.768,1.985-0.768h6.229L140.33,25.265z"/>
<polygon fill="#398CA1" points="199.235,22.623 196.127,22.623 192.708,27.431 189.288,22.623 186.18,22.623 191.153,29.617 
	186.18,36.611 189.288,36.611 192.708,31.802 196.127,36.611 199.235,36.611 194.262,29.617 "/>
</svg>
