/* XPM */
static char * ie_actionIcon_grey_xpm[] = {
"20 20 81 1",
" 	c None",
".	c #D8D8D8",
"+	c #DCDCDC",
"@	c #F0F0F0",
"#	c #F5F5F5",
"$	c #F1F1F1",
"%	c #DBDBDB",
"&	c #DADADA",
"*	c #E3E3E3",
"=	c #D9D9D9",
"-	c #EBEBEB",
";	c #E8E8E8",
">	c #ADADAD",
",	c #EAEAEA",
"'	c #F8F8F8",
")	c #FDFDFD",
"!	c #F9F9F9",
"~	c #F2F2F2",
"{	c #CECECE",
"]	c #505050",
"^	c #D3D3D3",
"/	c #DDDDDD",
"(	c #696969",
"_	c #E0E0E0",
":	c #AEAEAE",
"<	c #B3B3B3",
"[	c #FEFEFE",
"}	c #5C5C5C",
"|	c #5E5E5E",
"1	c #656565",
"2	c #676767",
"3	c #5F5F5F",
"4	c #F4F4F4",
"5	c #DFDFDF",
"6	c #AFAFAF",
"7	c #535353",
"8	c #515151",
"9	c #B4B4B4",
"0	c #DEDEDE",
"a	c #E7E7E7",
"b	c #F3F3F3",
"c	c #5A5A5A",
"d	c #B1B1B1",
"e	c #5B5B5B",
"f	c #5D5D5D",
"g	c #FAFAFA",
"h	c #E9E9E9",
"i	c #525252",
"j	c #E1E1E1",
"k	c #BABABA",
"l	c #919191",
"m	c #575757",
"n	c #F6F6F6",
"o	c #9A9A9A",
"p	c #979797",
"q	c #FCFCFC",
"r	c #D5D5D5",
"s	c #D1D1D1",
"t	c #F7F7F7",
"u	c #D2D2D2",
"v	c #B8B8B8",
"w	c #8B8B8B",
"x	c #C3C3C3",
"y	c #FBFBFB",
"z	c #CFCFCF",
"A	c #C8C8C8",
"B	c #8E8E8E",
"C	c #ECECEC",
"D	c #CDCDCD",
"E	c #686868",
"F	c #555555",
"G	c #565656",
"H	c #666666",
"I	c #585858",
"J	c #B2B2B2",
"K	c #B7B7B7",
"L	c #8A8A8A",
"M	c #E4E4E4",
"N	c #EFEFEF",
"O	c #7B7B7B",
"P	c #FFFFFF",
"....................",
".......+@##$%.......",
"....&*=-;>>,,&*=....",
"...%')!~{]]^$!)'%...",
"..&'/(_):]]<[/(_'&..",
"..;$}]|1]]]]2}]34;..",
"..5[6]]]7887]]]9)0..",
".&ab'c]c6~bde]fgba%.",
".#$h6]i9[jj[k8]9h~b.",
".gl]]]mn+oo=!c]]]pg.",
".gl]]]eqroos)3]]]pg.",
".tuvw]]xyz{gA]]Bvr'.",
".j$tC7]1D)[zE]F$n@_.",
"..%!=G]]]1H]]]I/!&..",
"..;$e]]]]]]]8]]|4;..",
"..5)J8KjL]]BMd8K)0..",
"...j)0[t{]]^t[0)j...",
"....5NjC&OO0C_N_....",
".......5qPPg_.......",
"...................."};
