<?xml version="1.0" encoding="UTF-8" standalone="no"?>
<!-- Created with Inkscape (http://www.inkscape.org/) -->

<svg
   xmlns:i="http://ns.adobe.com/AdobeIllustrator/10.0/"
   xmlns:dc="http://purl.org/dc/elements/1.1/"
   xmlns:cc="http://creativecommons.org/ns#"
   xmlns:rdf="http://www.w3.org/1999/02/22-rdf-syntax-ns#"
   xmlns:svg="http://www.w3.org/2000/svg"
   xmlns="http://www.w3.org/2000/svg"
   xmlns:sodipodi="http://sodipodi.sourceforge.net/DTD/sodipodi-0.dtd"
   xmlns:inkscape="http://www.inkscape.org/namespaces/inkscape"
   width="64px"
   height="64px"
   id="svg3159"
   version="1.1"
   inkscape:version="0.47 r22583"
   sodipodi:docname="cow.svg">
  <defs
     id="defs3161">
    <inkscape:perspective
       sodipodi:type="inkscape:persp3d"
       inkscape:vp_x="0 : 32 : 1"
       inkscape:vp_y="0 : 1000 : 0"
       inkscape:vp_z="64 : 32 : 1"
       inkscape:persp3d-origin="32 : 21.333333 : 1"
       id="perspective3167" />
    <inkscape:perspective
       id="perspective3150"
       inkscape:persp3d-origin="0.5 : 0.33333333 : 1"
       inkscape:vp_z="1 : 0.5 : 1"
       inkscape:vp_y="0 : 1000 : 0"
       inkscape:vp_x="0 : 0.5 : 1"
       sodipodi:type="inkscape:persp3d" />
    <inkscape:perspective
       id="perspective2942"
       inkscape:persp3d-origin="0.5 : 0.33333333 : 1"
       inkscape:vp_z="1 : 0.5 : 1"
       inkscape:vp_y="0 : 1000 : 0"
       inkscape:vp_x="0 : 0.5 : 1"
       sodipodi:type="inkscape:persp3d" />
    <inkscape:perspective
       id="perspective2955"
       inkscape:persp3d-origin="0.5 : 0.33333333 : 1"
       inkscape:vp_z="1 : 0.5 : 1"
       inkscape:vp_y="0 : 1000 : 0"
       inkscape:vp_x="0 : 0.5 : 1"
       sodipodi:type="inkscape:persp3d" />
  </defs>
  <sodipodi:namedview
     id="base"
     pagecolor="#ffffff"
     bordercolor="#666666"
     borderopacity="1.0"
     inkscape:pageopacity="0.0"
     inkscape:pageshadow="2"
     inkscape:zoom="4.828125"
     inkscape:cx="32"
     inkscape:cy="36.592263"
     inkscape:current-layer="layer1"
     showgrid="true"
     inkscape:document-units="px"
     inkscape:grid-bbox="true"
     inkscape:window-width="1202"
     inkscape:window-height="557"
     inkscape:window-x="1920"
     inkscape:window-y="44"
     inkscape:window-maximized="0" />
  <metadata
     id="metadata3164">
    <rdf:RDF>
      <cc:Work
         rdf:about="">
        <dc:format>image/svg+xml</dc:format>
        <dc:type
           rdf:resource="http://purl.org/dc/dcmitype/StillImage" />
        <dc:title />
      </cc:Work>
    </rdf:RDF>
  </metadata>
  <g
     id="layer1"
     inkscape:label="Layer 1"
     inkscape:groupmode="layer">
    <g
       transform="matrix(-0.17256902,0,0,0.17256902,63.563019,14.30766)"
       style="fill:#000000;fill-opacity:1;stroke:#000000"
       id="g2455"
       i:extraneous="self">
      <g
         style="fill:#000000;fill-opacity:1;stroke:#000000"
         i:rgbTrio="#4F008000FFFF"
         i:dimmedPercent="50"
         i:layer="yes"
         id="g2457">
        <path
           style="fill:#000000;fill-opacity:1;stroke:#000000"
           id="path2459"
           d="m 121.321,16.465 c -6.982,0.499 -14,1 -20,-2 -11,-4 -21,-12 -33,-13 -9,-2 -19,-1 -28,4 -1,1 -6,-2 -10,-2 -2,0 -1,3 -1,4 2,3 5,6 5,7 -2,18 -24,25 -32,40 -4,7 -1,13 5,17 5,2 10,0 15,-1 15,-5 30,-1 45,-1 13,10 26,19 37,31 7,8 10,19 19,26 4,3 10,5 13,9 11,20 23,45 9,67 -3,4 -1,9 3,10 8,0 21,4 23,-4 6,-23 0,-46 7,-68 19,-2 36,5 54,10 4,1 8,-1 12,0 5,2 6,8 10,10 6,4 12,7 18,10 1,1 -1,5 -1,8 0,1 2,3 4,2 3,-2 4,-4 3,-7 3,-1 7,0 10,0 4,1 3,5 3,8 1,3 4,2 5,0 0,-5 3,-11 5,-7 3,7 -3,17 -7,25 -2,4 -3,10 2,12 7,2 15,4 20,-2 4,-4 0,-11 2,-17 4,-12 5,-25 9,-38 2,-5 0,-11 1,-16 6,-24 11,-47 16,-72 0,-2 1,-5 2,-8 -2,22 4,43 1,65 -2,13 -2,25 4,37 3,6 12,3 13,-4 0,-9 1,-18 -1,-28 -2,-12 -5,-23 -6,-35 -1,-18 1,-36 0,-54 0,-2 -2,-3 -2,-5 -3,-7 -9,-10 -15,-14 -9,-6 -18,-6 -28,-7 -23,-1 -44,3 -67,6 -42,4 -82,-6 -124,-3 z"
           i:knockout="Off" />
      </g>
    </g>
    <path
       style="fill:#ffff00;fill-opacity:1;stroke:#000000;stroke-width:0.01659929;stroke-linecap:butt;stroke-linejoin:round;stroke-miterlimit:4;stroke-opacity:1;stroke-dasharray:none"
       d="m 14.231178,36.965657 c -3.027991,-1.082084 -4.7883808,-4.094523 -4.7883808,-8.194036 0,-2.337365 0.8969848,-4.193825 2.7241788,-5.638138 1.602133,-1.266412 2.686919,-1.591121 5.322104,-1.593068 1.623534,-0.0012 2.28773,0.13076 3.368116,0.669134 3.208777,1.599001 3.532656,3.792575 0.632317,4.282585 -0.819126,0.138387 -1.302035,0.01513 -2.550317,-0.651 -1.76179,-0.940143 -2.002446,-0.972619 -3.07963,-0.415586 -1.248372,0.645557 -1.682276,1.781537 -1.538173,4.026993 0.155851,2.428491 0.876204,3.730082 2.278698,4.11733 1.261156,0.348221 2.601874,-0.24751 2.976669,-1.322645 0.341981,-0.98101 1.197914,-1.425273 2.702164,-1.402533 1.293909,0.01956 2.156783,0.702153 2.156783,1.706163 0,0.810372 -1.248952,2.573986 -2.427367,3.427627 -1.769595,1.281889 -5.594045,1.767335 -7.777162,0.987174 z"
       id="path2833" />
    <path
       style="fill:#ffff00;fill-opacity:1;stroke:#000000;stroke-width:0.01659929;stroke-linecap:butt;stroke-linejoin:round;stroke-miterlimit:4;stroke-opacity:1;stroke-dasharray:none"
       d="m 33.702758,34.171359 c -0.07431,-0.120246 -0.381242,-1.106791 -0.682059,-2.19232 -0.300816,-1.085532 -0.647905,-2.07466 -0.771306,-2.198062 -0.123397,-0.123397 -0.877777,-0.287848 -1.676385,-0.365432 -2.596806,-0.252279 -3.192265,-0.395852 -3.192265,-0.769701 0,-0.200898 0.843352,-0.920871 1.874114,-1.599941 2.117959,-1.395318 2.12922,-1.428722 1.457691,-4.324299 -0.584847,-2.52181 -0.290973,-2.667719 1.933204,-0.959848 0.990995,0.760952 2.005596,1.38355 2.254669,1.38355 0.249073,0 1.277539,-0.481915 2.285481,-1.070923 1.007941,-0.589007 1.924893,-1.070922 2.037669,-1.070922 0.376467,0 0.211404,0.990278 -0.464281,2.785407 -0.36813,0.978029 -0.669325,1.911225 -0.669325,2.073765 0,0.162542 0.813231,1.062209 1.807181,1.99926 2.165864,2.041883 2.036438,2.311553 -1.00399,2.091898 -1.104389,-0.07978 -2.148215,-0.04729 -2.319614,0.07223 -0.1714,0.11951 -0.736818,1.150293 -1.256488,2.290633 -0.880096,1.931239 -1.281776,2.392744 -1.614296,1.854713 l 0,0 z"
       id="path2835" />
    <path
       style="fill:#ffffff;fill-opacity:1;fill-rule:evenodd;stroke:none;stroke-width:2.20000005;marker:none;visibility:visible;display:inline;overflow:visible;enable-background:accumulate"
       d="m 47.448325,16.665807 c 1.507126,1.004751 4.521378,2.009501 6.028504,2.009501 1.507126,0 0.291277,0 0.291277,0 0,0 0.580414,-1.120542 2.08754,-1.120542 1.507126,0 1.656517,0.05395 2.139999,-0.08252 0.523485,-0.14777 2.670733,1.663218 2.670733,1.663218 0,0 -1.350717,-0.38512 -1.933588,0.02111 -0.417936,0.291277 -0.05472,1.756183 -3.077582,1.756183 -1.752149,0 -1.861732,-1.106039 -1.861732,-1.106039 0,0 -1.855799,-0.181422 -3.833275,-0.797913 -2.22183,-0.692669 -4.019002,-2.342998 -4.019002,-2.342998 l 1.004751,-0.502375"
       id="path3815"
       sodipodi:nodetypes="cscsscsscscc" />
    <path
       style="fill:#000000;fill-opacity:1;fill-rule:evenodd;stroke:none;stroke-width:2.20000005;marker:none;visibility:visible;display:inline;overflow:visible;enable-background:accumulate"
       d="m 57.223878,18.196721 c -1.200826,-0.04456 -2.758145,-0.04456 -2.701853,1.002339 0.05629,1.04687 0.431547,1.269614 1.557314,1.09142 1.125778,-0.178189 1.857529,-0.668223 1.876291,-1.314165 0.01877,-0.645948 -0.30021,-0.712775 -0.731752,-0.779594 z"
       id="path3817" />
  </g>
</svg>
