<?xml version="1.0" encoding="UTF-8" standalone="no"?>
<!-- Created with Inkscape (http://www.inkscape.org/) -->
<svg
   xmlns:dc="http://purl.org/dc/elements/1.1/"
   xmlns:cc="http://creativecommons.org/ns#"
   xmlns:rdf="http://www.w3.org/1999/02/22-rdf-syntax-ns#"
   xmlns:svg="http://www.w3.org/2000/svg"
   xmlns="http://www.w3.org/2000/svg"
   xmlns:xlink="http://www.w3.org/1999/xlink"
   xmlns:sodipodi="http://sodipodi.sourceforge.net/DTD/sodipodi-0.dtd"
   xmlns:inkscape="http://www.inkscape.org/namespaces/inkscape"
   width="48.000000px"
   height="48.000000px"
   id="svg4376"
   sodipodi:version="0.32"
   inkscape:version="0.46"
   sodipodi:docbase="/home/tigert/cvs/freedesktop.org/tango-icon-theme/scalable/emotes"
   sodipodi:docname="SOP_ieInterpolatedCacheReader.svg"
   inkscape:export-filename="/home/tigert/Desktop/face-grin.png"
   inkscape:export-xdpi="90.000000"
   inkscape:export-ydpi="90.000000"
   inkscape:output_extension="org.inkscape.output.svg.inkscape">
  <defs
     id="defs3">
    <inkscape:perspective
       sodipodi:type="inkscape:persp3d"
       inkscape:vp_x="0 : 24 : 1"
       inkscape:vp_y="0 : 1000 : 0"
       inkscape:vp_z="48 : 24 : 1"
       inkscape:persp3d-origin="24 : 16 : 1"
       id="perspective61" />
    <linearGradient
       id="linearGradient2337">
      <stop
         style="stop-color:#cc0000;stop-opacity:1;"
         offset="0"
         id="stop2339" />
      <stop
         id="stop2345"
         offset="0.27586207"
         style="stop-color:#c84a00;stop-opacity:1;" />
      <stop
         style="stop-color:#be0000;stop-opacity:1;"
         offset="1"
         id="stop2341" />
    </linearGradient>
    <linearGradient
       inkscape:collect="always"
       id="linearGradient2319">
      <stop
         style="stop-color:#f2d565;stop-opacity:1;"
         offset="0"
         id="stop2321" />
      <stop
         style="stop-color:#f2d565;stop-opacity:0;"
         offset="1"
         id="stop2323" />
    </linearGradient>
    <linearGradient
       id="linearGradient2311">
      <stop
         style="stop-color:#ffd93c;stop-opacity:1;"
         offset="0"
         id="stop2313" />
      <stop
         style="stop-color:#ffffff;stop-opacity:0;"
         offset="1"
         id="stop2315" />
    </linearGradient>
    <linearGradient
       id="linearGradient2291">
      <stop
         style="stop-color:#ffa107;stop-opacity:1;"
         offset="0"
         id="stop2293" />
      <stop
         style="stop-color:#cc0000;stop-opacity:1;"
         offset="1"
         id="stop2295" />
    </linearGradient>
    <linearGradient
       id="linearGradient2283">
      <stop
         style="stop-color:#730000;stop-opacity:1;"
         offset="0"
         id="stop2285" />
      <stop
         style="stop-color:#ff0202;stop-opacity:1;"
         offset="1"
         id="stop2287" />
    </linearGradient>
    <linearGradient
       id="linearGradient2102">
      <stop
         style="stop-color:#000000;stop-opacity:1;"
         offset="0"
         id="stop2104" />
      <stop
         style="stop-color:#000000;stop-opacity:0;"
         offset="1"
         id="stop2106" />
    </linearGradient>
    <linearGradient
       id="linearGradient3068">
      <stop
         style="stop-color:#cccccc;stop-opacity:1.0000000;"
         offset="0.0000000"
         id="stop3070" />
      <stop
         id="stop3076"
         offset="0.34579438"
         style="stop-color:#ffffff;stop-opacity:1.0000000;" />
      <stop
         style="stop-color:#ffffff;stop-opacity:1.0000000;"
         offset="0.72486681"
         id="stop3078" />
      <stop
         style="stop-color:#cecece;stop-opacity:1.0000000;"
         offset="1.0000000"
         id="stop3072" />
    </linearGradient>
    <linearGradient
       inkscape:collect="always"
       id="linearGradient4565">
      <stop
         style="stop-color:#000000;stop-opacity:1;"
         offset="0"
         id="stop4567" />
      <stop
         style="stop-color:#000000;stop-opacity:0;"
         offset="1"
         id="stop4569" />
    </linearGradient>
    <radialGradient
       inkscape:collect="always"
       xlink:href="#linearGradient4565"
       id="radialGradient1360"
       gradientUnits="userSpaceOnUse"
       gradientTransform="matrix(1,0,0,0.333333,-1.239242e-15,25.71429)"
       cx="24.714285"
       cy="38.571430"
       fx="24.714285"
       fy="38.571430"
       r="19.714285" />
    <linearGradient
       inkscape:collect="always"
       xlink:href="#linearGradient2102"
       id="linearGradient2112"
       gradientUnits="userSpaceOnUse"
       x1="14.000000"
       y1="21.062500"
       x2="14"
       y2="34.305527"
       gradientTransform="matrix(1,0,0,1.404523,6.545492,-7.966331)" />
    <linearGradient
       inkscape:collect="always"
       xlink:href="#linearGradient2102"
       id="linearGradient2116"
       gradientUnits="userSpaceOnUse"
       gradientTransform="matrix(1,0,0,1.171895,-1.454508,-3.141166)"
       x1="14.000000"
       y1="21.062500"
       x2="13.500000"
       y2="33.426670" />
    <linearGradient
       inkscape:collect="always"
       xlink:href="#linearGradient2102"
       id="linearGradient2120"
       gradientUnits="userSpaceOnUse"
       gradientTransform="matrix(1,0,0,1.159815,14.54551,-2.815047)"
       x1="14.000000"
       y1="21.062500"
       x2="14.500000"
       y2="33.431156" />
    <linearGradient
       inkscape:collect="always"
       xlink:href="#linearGradient3068"
       id="linearGradient2132"
       x1="9.7892637"
       y1="29.629091"
       x2="38.390732"
       y2="29.629091"
       gradientUnits="userSpaceOnUse"
       gradientTransform="matrix(1.048897,0,0,1,-5.222439,0)" />
    <linearGradient
       inkscape:collect="always"
       xlink:href="#linearGradient2283"
       id="linearGradient2289"
       x1="39.125"
       y1="33.375"
       x2="46.625"
       y2="16.5"
       gradientUnits="userSpaceOnUse"
       gradientTransform="matrix(0.780746,0,0,0.780746,9.900195,9.256071)" />
    <radialGradient
       inkscape:collect="always"
       xlink:href="#linearGradient2291"
       id="radialGradient2297"
       cx="30.561104"
       cy="15.699058"
       fx="30.561104"
       fy="15.699058"
       r="8.9020799"
       gradientUnits="userSpaceOnUse"
       gradientTransform="matrix(0.771216,8.401156e-17,-8.401156e-17,0.771216,6.991896,3.591695)" />
    <linearGradient
       inkscape:collect="always"
       xlink:href="#linearGradient2311"
       id="linearGradient2317"
       x1="32.098553"
       y1="6.1454587"
       x2="31.775375"
       y2="8.044363"
       gradientUnits="userSpaceOnUse" />
    <linearGradient
       inkscape:collect="always"
       xlink:href="#linearGradient2319"
       id="linearGradient2325"
       x1="28.764467"
       y1="12.221258"
       x2="38.070023"
       y2="38.297359"
       gradientUnits="userSpaceOnUse" />
    <linearGradient
       inkscape:collect="always"
       xlink:href="#linearGradient2311"
       id="linearGradient2327"
       gradientUnits="userSpaceOnUse"
       x1="7.2235508"
       y1="6.0204587"
       x2="8.0878754"
       y2="8.044363" />
    <linearGradient
       inkscape:collect="always"
       xlink:href="#linearGradient2337"
       id="linearGradient2343"
       x1="30.525612"
       y1="7.3609705"
       x2="32.311508"
       y2="9.4234705"
       gradientUnits="userSpaceOnUse" />
    <linearGradient
       inkscape:collect="always"
       xlink:href="#linearGradient2337"
       id="linearGradient2347"
       gradientUnits="userSpaceOnUse"
       x1="10.400612"
       y1="7.6109705"
       x2="8.8115082"
       y2="9.6734705" />
  </defs>
  <sodipodi:namedview
     fill="#cc0000"
     id="base"
     pagecolor="#ffffff"
     bordercolor="#666666"
     borderopacity="0.19607843"
     inkscape:pageopacity="0.0"
     inkscape:pageshadow="2"
     inkscape:zoom="8"
     inkscape:cx="5.7671277"
     inkscape:cy="20.915776"
     inkscape:current-layer="layer1"
     showgrid="false"
     inkscape:grid-bbox="true"
     inkscape:document-units="px"
     inkscape:showpageshadow="false"
     inkscape:window-width="872"
     inkscape:window-height="710"
     inkscape:window-x="562"
     inkscape:window-y="138"
     stroke="#a40000" />
  <metadata
     id="metadata4">
    <rdf:RDF>
      <cc:Work
         rdf:about="">
        <dc:format>image/svg+xml</dc:format>
        <dc:type
           rdf:resource="http://purl.org/dc/dcmitype/StillImage" />
        <dc:title>Face - Devil Grin</dc:title>
        <dc:subject>
          <rdf:Bag>
            <rdf:li>emoticon</rdf:li>
            <rdf:li>emote</rdf:li>
            <rdf:li>smiley</rdf:li>
            <rdf:li>laugh</rdf:li>
            <rdf:li>grin</rdf:li>
            <rdf:li>&gt;:-D</rdf:li>
            <rdf:li>&gt;:D</rdf:li>
          </rdf:Bag>
        </dc:subject>
        <cc:license
           rdf:resource="http://creativecommons.org/licenses/publicdomain/" />
        <dc:creator>
          <cc:Agent>
            <dc:title>Jakub Steiner</dc:title>
          </cc:Agent>
        </dc:creator>
        <dc:source>http://jimmac.musichall.cz</dc:source>
        <dc:contributor>
          <cc:Agent>
            <dc:title>Tuomas Kuosmanen</dc:title>
          </cc:Agent>
        </dc:contributor>
      </cc:Work>
      <cc:License
         rdf:about="http://creativecommons.org/licenses/publicdomain/">
        <cc:permits
           rdf:resource="http://creativecommons.org/ns#Reproduction" />
        <cc:permits
           rdf:resource="http://creativecommons.org/ns#Distribution" />
        <cc:permits
           rdf:resource="http://creativecommons.org/ns#DerivativeWorks" />
      </cc:License>
    </rdf:RDF>
  </metadata>
  <g
     id="layer1"
     inkscape:label="Layer 1"
     inkscape:groupmode="layer">
    <rect
       style="opacity:1;fill:#ffffff;fill-opacity:1;fill-rule:evenodd;stroke:#000000;stroke-width:5.32290983;stroke-linecap:round;stroke-linejoin:round;marker:none;marker-start:none;marker-mid:none;marker-end:none;stroke-miterlimit:4;stroke-dasharray:none;stroke-dashoffset:0;stroke-opacity:1;visibility:visible;display:inline;overflow:visible;enable-background:accumulate"
       id="rect3201"
       width="42.513897"
       height="42.652786"
       x="2.8055537"
       y="2.7986081"
       ry="5.3857279"
       inkscape:export-filename="/home/tomc/layeredShadingRoughts/ierLS_curves.png"
       inkscape:export-xdpi="90"
       inkscape:export-ydpi="90"
       rx="5.3681898" />
    <path
       style="opacity:1;fill:#bbbbbb;fill-opacity:1;fill-rule:nonzero;stroke:none;stroke-width:2.5;stroke-linecap:round;stroke-linejoin:round;marker:none;marker-start:none;marker-mid:none;marker-end:none;stroke-miterlimit:4;stroke-dasharray:none;stroke-dashoffset:0;stroke-opacity:1;visibility:visible;display:inline;overflow:visible;enable-background:accumulate"
       d="M 13.561594,8.7831858 C 12.335068,8.7943285 11.47496,8.9838137 10.821441,10.03278 C 10.489275,10.565886 10.453004,13.024525 10.821441,13.864864 C 11.189904,14.705206 12.731244,15.95589 12.731244,16.364052 C 12.731244,18.013435 11.01759,17.243685 9.8250215,17.613644 C 7.9721863,18.188444 6.2638186,18.174396 1.6875969,20.612669 C 0.65387119,21.163449 1.5998845,24.376909 3.2652606,24.278142 C 4.847893,24.184279 10.272746,20.757314 10.323231,22.195486 C 10.37082,23.550432 10.581662,25.70144 10.074127,27.110554 C 9.5110569,28.673805 6.9187983,39.773098 6.9187983,39.773098 L 11.98393,40.023017 C 12.380478,35.999393 12.408485,30.977615 14.724083,28.110228 C 17.082063,30.968817 17.065324,35.975428 17.464237,40.023017 L 22.52937,39.773098 C 22.52937,39.773098 19.937111,28.673858 19.37404,27.110554 C 18.866504,25.70144 19.077347,23.550485 19.124936,22.195486 C 19.175421,20.757314 24.600273,24.184252 26.182907,24.278142 C 27.848282,24.376909 28.794296,21.163449 27.76057,20.612669 C 23.184349,18.174396 21.475981,18.188418 19.623146,17.613644 C 18.430579,17.243685 16.716922,18.013409 16.716922,16.364052 C 16.716922,15.95589 18.258265,14.705178 18.626727,13.864864 C 18.995163,13.024525 18.958893,10.565886 18.626727,10.03278 C 17.809635,8.721232 16.712006,8.8114692 14.890153,8.8664914 C 14.890605,8.8655321 14.889649,8.7834528 14.890153,8.7831858 C 14.3764,8.7684438 13.970445,8.7794805 13.561594,8.7831858 z"
       id="path4439" />
    <path
       style="opacity:1;fill:#7a7a7a;fill-opacity:1;fill-rule:nonzero;stroke:none;stroke-width:2.5;stroke-linecap:round;stroke-linejoin:round;marker:none;marker-start:none;marker-mid:none;marker-end:none;stroke-miterlimit:4;stroke-dasharray:none;stroke-dashoffset:0;stroke-opacity:1;visibility:visible;display:inline;overflow:visible;enable-background:accumulate"
       d="M 23.895394,9.0187884 C 22.668867,9.0299322 21.808758,9.2194174 21.155241,10.268382 C 20.823074,10.801488 20.786804,13.260129 21.155241,14.100468 C 21.523703,14.940808 23.065045,16.191494 23.065045,16.599656 C 23.065045,18.249038 21.351389,17.479289 20.158821,17.849248 C 18.305986,18.424048 16.597617,18.409998 12.021395,20.848271 C 10.98767,21.399053 11.933685,24.612513 13.59906,24.513745 C 15.181693,24.419883 20.606546,20.992918 20.657031,22.43109 C 20.704619,23.786035 20.915462,25.937042 20.407926,27.346155 C 19.844856,28.909408 17.252597,40.008702 17.252597,40.008702 L 22.31773,40.25862 C 22.714278,36.234997 22.742284,31.213217 25.057883,28.345831 C 27.415864,31.204422 27.399123,36.211032 27.798037,40.25862 L 32.863167,40.008702 C 32.863167,40.008702 30.27091,28.909461 29.70784,27.346155 C 29.200305,25.937042 29.411147,23.786089 29.458735,22.43109 C 29.509221,20.992918 34.934073,24.419856 36.516706,24.513745 C 38.182082,24.612513 39.128095,21.399053 38.094371,20.848271 C 33.518147,18.409998 31.809779,18.424021 29.956945,17.849248 C 28.764377,17.479289 27.050722,18.24901 27.050722,16.599656 C 27.050722,16.191494 28.592063,14.940781 28.960526,14.100468 C 29.328961,13.260129 29.292693,10.801488 28.960526,10.268382 C 28.143435,8.9568358 27.045806,9.047073 25.223953,9.1020952 C 25.224405,9.1011359 25.223448,9.0190553 25.223953,9.0187884 C 24.710198,9.0040465 24.304244,9.0150832 23.895394,9.0187884 z"
       id="path4437" />
    <path
       style="opacity:1;fill:#000000;fill-opacity:1;fill-rule:nonzero;stroke:none;stroke-width:2.5;stroke-linecap:round;stroke-linejoin:round;marker:none;marker-start:none;marker-mid:none;marker-end:none;stroke-miterlimit:4;stroke-dasharray:none;stroke-dashoffset:0;stroke-opacity:1;visibility:visible;display:inline;overflow:visible;enable-background:accumulate"
       d="M 34.152455,8.7736423 C 32.92593,8.7847849 32.065819,8.9742701 31.412301,10.023236 C 31.080136,10.556342 31.043867,13.014981 31.412301,13.855321 C 31.780764,14.695661 33.322106,15.946346 33.322106,16.354508 C 33.322106,18.003891 31.60845,17.234141 30.415883,17.6041 C 28.563047,18.1789 26.854679,18.164852 22.278458,20.603125 C 21.244731,21.153905 22.190745,24.367367 23.85612,24.268598 C 25.438754,24.174735 30.863607,20.747771 30.914092,22.185942 C 30.961681,23.54089 31.172525,25.691896 30.664987,27.10101 C 30.101917,28.664261 27.509659,39.763555 27.509659,39.763555 L 32.574791,40.013473 C 32.971339,35.989849 32.999346,30.968071 35.314945,28.100684 C 37.672924,30.959274 37.656185,35.965884 38.055097,40.013473 L 43.12023,39.763555 C 43.12023,39.763555 40.527973,28.664315 39.964901,27.10101 C 39.457365,25.691896 39.668208,23.540941 39.715797,22.185942 C 39.766283,20.747771 44.360785,23.841485 45.943418,23.935374 C 47.608794,24.034141 47.060179,20.654069 46.026453,20.103288 C 41.450232,17.665014 42.066842,18.178874 40.214006,17.6041 C 39.021438,17.234141 37.307784,18.003864 37.307784,16.354508 C 37.307784,15.946346 38.849124,14.695635 39.217587,13.855321 C 39.586023,13.014981 39.549754,10.556342 39.217587,10.023236 C 38.400498,8.7116884 37.302868,8.8019255 35.481014,8.8569478 C 35.481466,8.8559886 35.480509,8.7739091 35.481014,8.7736423 C 34.967261,8.7589004 34.561306,8.7699369 34.152455,8.7736423 z"
       id="path4432"
       sodipodi:nodetypes="csssssssscccccssssssssssc" />
    <rect
       style="opacity:1;fill:none;fill-opacity:1;fill-rule:evenodd;stroke:#000000;stroke-width:5.32290983;stroke-linecap:round;stroke-linejoin:round;marker:none;marker-start:none;marker-mid:none;marker-end:none;stroke-miterlimit:4;stroke-dasharray:none;stroke-dashoffset:0;stroke-opacity:1;visibility:visible;display:inline;overflow:visible;enable-background:accumulate"
       id="rect4441"
       width="42.513897"
       height="42.652786"
       x="2.8055537"
       y="2.7986081"
       ry="5.3857279"
       inkscape:export-filename="/home/tomc/layeredShadingRoughts/ierLS_curves.png"
       inkscape:export-xdpi="90"
       inkscape:export-ydpi="90"
       rx="5.3681898" />
  </g>
</svg>
