/* XPM */
static char * ie_addIcon_grey_xpm[] = {
"20 20 5 1",
" 	c None",
".	c #D8D8D8",
"+	c #FFFFFF",
"@	c #505050",
"#	c #D9D9D9",
"....................",
"....................",
"....................",
".......++++++.......",
".......+@@@@+.......",
".......+@@@@+.......",
"...#...+@@@@+...#...",
"...+++++@@@@+++++...",
"...+@@@@@@@@@@@@+...",
"...+@@@@@@@@@@@@+...",
"...+@@@@@@@@@@@@+...",
"...+@@@@@@@@@@@@+...",
"...+++++@@@@+++++...",
".......+@@@@+.......",
".......+@@@@+.......",
".......+@@@@+.......",
".......++++++.......",
"....................",
"....................",
"...................."};
